HIERARCHY
ROOT Hips
{
	OFFSET 0.00000 0.00000 0.00000
	CHANNELS 6 Xposition Yposition Zposition Zrotation Yrotation Xrotation 
	JOINT LHipJoint
	{
		OFFSET 0 0 0
		CHANNELS 3 Zrotation Yrotation Xrotation
		JOINT LeftUpLeg
		{
			OFFSET 1.64577 -1.42384 0.94276
			CHANNELS 3 Zrotation Yrotation Xrotation
			JOINT LeftLeg
			{
				OFFSET 2.11538 -5.81197 0.00000
				CHANNELS 3 Zrotation Yrotation Xrotation
				JOINT LeftFoot
				{
					OFFSET 2.36541 -6.49893 0.00000
					CHANNELS 3 Zrotation Yrotation Xrotation
					JOINT LeftToeBase
					{
						OFFSET 0.17759 -0.48793 1.73865
						CHANNELS 3 Zrotation Yrotation Xrotation
						End Site
						{
							OFFSET 0.00000 -0.00000 0.91205
						}
					}
				}
			}
		}
	}
	JOINT RHipJoint
	{
		OFFSET 0 0 0
		CHANNELS 3 Zrotation Yrotation Xrotation
		JOINT RightUpLeg
		{
			OFFSET -1.43750 -1.42384 0.94276
			CHANNELS 3 Zrotation Yrotation Xrotation
			JOINT RightLeg
			{
				OFFSET -2.10480 -5.78291 0.00000
				CHANNELS 3 Zrotation Yrotation Xrotation
				JOINT RightFoot
				{
					OFFSET -2.34880 -6.45329 0.00000
					CHANNELS 3 Zrotation Yrotation Xrotation
					JOINT RightToeBase
					{
						OFFSET -0.22842 -0.62757 1.80469
						CHANNELS 3 Zrotation Yrotation Xrotation
						End Site
						{
							OFFSET -0.00000 -0.00000 0.95886
						}
					}
				}
			}
		}
	}
	JOINT LowerBack
	{
		OFFSET 0 0 0
		CHANNELS 3 Zrotation Yrotation Xrotation
		JOINT Spine
		{
			OFFSET 0.06217 1.93758 -0.49272
			CHANNELS 3 Zrotation Yrotation Xrotation
			JOINT Spine1
			{
				OFFSET -0.03114 2.03621 -0.05830
				CHANNELS 3 Zrotation Yrotation Xrotation
				JOINT Neck
				{
					OFFSET 0 0 0
					CHANNELS 3 Zrotation Yrotation Xrotation
					JOINT Neck1
					{
						OFFSET 0.04421 1.41010 0.26562
						CHANNELS 3 Zrotation Yrotation Xrotation
						JOINT Head
						{
							OFFSET -0.13407 1.43847 0.06181
							CHANNELS 3 Zrotation Yrotation Xrotation
							End Site
							{
								OFFSET -0.04980 1.45844 -0.00689
							}
						}
					}
				}
				JOINT LeftShoulder
				{
					OFFSET 0 0 0
					CHANNELS 3 Zrotation Yrotation Xrotation
					JOINT LeftArm
					{
						OFFSET 2.18382 1.47753 -0.35694
						CHANNELS 3 Zrotation Yrotation Xrotation
						JOINT LeftForeArm
						{
							OFFSET 5.05460 -0.00000 0.00000
							CHANNELS 3 Zrotation Yrotation Xrotation
							JOINT LeftHand
							{
								OFFSET 3.39013 -0.00000 0.00000
								CHANNELS 3 Zrotation Yrotation Xrotation
								JOINT LeftFingerBase
								{
									OFFSET 0 0 0
									CHANNELS 3 Zrotation Yrotation Xrotation
									JOINT LeftHandIndex1
									{
										OFFSET 0.57242 -0.00000 -0.00000
										CHANNELS 3 Zrotation Yrotation Xrotation
										End Site
										{
											OFFSET 0.46150 -0.00000 -0.00000
										}
									}
								}
								JOINT LThumb
								{
									OFFSET 0 0 0
									CHANNELS 3 Zrotation Yrotation Xrotation
									End Site
									{
										OFFSET 0.46855 -0.00000 0.46855
									}
								}
							}
						}
					}
				}
				JOINT RightShoulder
				{
					OFFSET 0 0 0
					CHANNELS 3 Zrotation Yrotation Xrotation
					JOINT RightArm
					{
						OFFSET -2.06033 1.72839 -0.47437
						CHANNELS 3 Zrotation Yrotation Xrotation
						JOINT RightForeArm
						{
							OFFSET -5.07010 -0.00000 0.00000
							CHANNELS 3 Zrotation Yrotation Xrotation
							JOINT RightHand
							{
								OFFSET -3.14957 -0.00000 -0.00000
								CHANNELS 3 Zrotation Yrotation Xrotation
								JOINT RightFingerBase
								{
									OFFSET 0 0 0
									CHANNELS 3 Zrotation Yrotation Xrotation
									JOINT RightHandIndex1
									{
										OFFSET -0.71819 -0.00000 -0.00000
										CHANNELS 3 Zrotation Yrotation Xrotation
										End Site
										{
											OFFSET -0.57902 -0.00000 -0.00000
										}
									}
								}
								JOINT RThumb
								{
									OFFSET 0 0 0
									CHANNELS 3 Zrotation Yrotation Xrotation
									End Site
									{
										OFFSET -0.58786 -0.00000 0.58786
									}
								}
							}
						}
					}
				}
			}
		}
	}
}
MOTION
Frames: 10
Frame Time: 0.0166666
22.3806 15.4363 0.2552 -176.0440 -81.3233 174.4850 0.0000 0.0000 0.0000 -14.6569 -11.9891 -0.7521 1.6508 8.0974 23.0103 0.3888 16.6903 -26.9628 0.1072 -2.1111 -5.8128 0.0000 0.0000 0.0000 21.2288 14.6772 -3.6200 -1.7690 -8.3673 23.8355 -0.2935 -19.7359 -30.0317 -1.3883 7.4548 -21.0699 -0.2477 0.1347 8.9594 -0.2635 -0.1310 6.6746 -0.1279 -0.1941 1.8956 9.1548 5.3495 -7.8519 -10.5278 6.7818 3.0308 -4.3299 3.1318 2.8615 0.0000 0.0000 0.0000 -86.5301 -34.9936 54.5323 159.7509 -30.9413 -114.3411 -0.0000 0.0000 -7.8356 -2.9559 -17.3487 0.8821 -7.1250 0.0000 -0.0000 -20.1437 13.3137 16.0073 0.0000 0.0000 0.0000 88.7231 27.5671 76.9789 -152.1777 38.9521 -109.9882 0.0000 -0.0000 -1.7886 -16.5187 27.0111 -7.6711 7.1250 -0.0000 -0.0000 8.0960 -2.2219 7.8558
22.4007 15.4284 0.2803 -172.9720 -81.6706 171.2950 0.0000 0.0000 0.0000 -14.1520 -11.7081 -1.1763 1.6996 8.2102 23.3545 0.3786 16.3141 -26.4301 0.1752 -2.6966 -7.4351 0.0000 0.0000 0.0000 21.6621 14.8035 -3.4313 -1.7571 -8.3407 23.7539 -0.1918 -20.3535 -30.1243 -1.3725 7.4142 -20.9484 -0.1441 0.0109 9.0143 -0.0060 -0.3009 6.8371 0.0911 -0.2859 2.0366 9.4070 5.4676 -8.1365 -11.0046 6.9332 3.2130 -4.5001 3.1822 3.0056 0.0000 -0.0000 0.0000 -85.3126 -36.4835 54.0773 159.8785 -30.7885 -114.4066 -0.0000 0.0000 -7.3640 -3.3544 -17.0850 0.9865 -7.1250 0.0000 -0.0000 -20.4169 13.5698 16.1376 0.0000 -0.0000 0.0000 88.7653 28.6146 76.9610 -152.1057 39.0188 -109.9429 0.0000 -0.0000 -1.7852 -16.0998 26.6756 -7.3831 7.1250 -0.0000 -0.0000 8.3190 -2.6251 8.0153
22.4131 15.4200 0.3130 -174.9130 -82.1854 173.0470 0.0000 0.0000 0.0000 -14.6035 -11.6198 -1.3573 1.7214 8.2599 23.5062 0.3302 16.1871 -25.8855 0.2929 -3.4803 -9.6190 0.0000 0.0000 0.0000 21.1559 14.5654 -3.4510 -1.7875 -8.4086 23.9622 -0.2171 -20.4159 -30.3786 -1.2322 7.0397 -19.8329 -0.6128 -0.2494 9.3582 -0.0136 -0.6864 6.8814 0.3766 -0.4984 1.9010 9.7972 5.3745 -7.8984 -11.5778 6.8186 3.2039 -4.7549 3.1169 2.9885 0.0000 0.0000 0.0000 -83.7886 -37.2303 53.6148 159.8812 -30.7852 -114.4080 -0.0000 0.0000 -7.3793 -3.6898 -16.5043 1.0496 -7.1250 0.0000 -0.0000 -20.6835 14.1208 16.1197 0.0000 0.0000 0.0000 88.6027 28.8184 76.7046 -151.7085 39.3832 -109.6919 0.0000 -0.0000 -2.4590 -16.1705 26.5212 -7.3776 7.1250 -0.0000 -0.0000 8.2643 -2.7700 7.9394
22.4149 15.4191 0.3469 -176.3920 -82.1987 174.4410 0.0000 0.0000 0.0000 -14.8955 -11.1631 -1.4941 1.7151 8.2455 23.4624 0.2931 16.1043 -25.4774 0.3595 -3.8520 -10.6608 0.0000 0.0000 0.0000 20.7692 14.4288 -3.5060 -1.8020 -8.4408 24.0612 -0.2016 -20.3391 -30.1734 -1.4039 7.4950 -21.1904 -1.0720 -0.4563 9.2962 0.0504 -1.0066 7.0952 0.7200 -0.6851 2.1718 9.9176 5.4160 -7.5861 -12.2372 6.8964 2.8812 -4.9833 3.1449 2.8814 0.0000 0.0000 0.0000 -82.2821 -37.2477 53.1316 159.5868 -31.1370 -114.2565 -0.0000 0.0000 -6.3235 -2.7476 -17.8715 0.8438 -7.1250 0.0000 -0.0000 -19.9672 12.8169 16.0706 0.0000 0.0000 0.0000 87.7351 28.2536 75.7753 -151.2920 39.7599 -109.4265 0.0000 -0.0000 -3.2746 -15.0104 25.4156 -6.5649 7.1250 -0.0000 -0.0000 8.8844 -4.0533 8.3369
22.4113 15.4270 0.3797 -175.8310 -81.5965 174.0980 0.0000 0.0000 0.0000 -14.7700 -10.5816 -1.8018 1.7065 8.2260 23.4028 0.3061 16.0359 -25.5011 0.3707 -3.9105 -10.8251 0.0000 0.0000 0.0000 20.7944 15.0150 -3.5623 -1.7839 -8.4006 23.9375 -0.1653 -20.3900 -29.9892 -1.3802 7.4340 -21.0077 -1.1259 -0.2850 9.2979 0.0273 -0.7768 6.9756 0.7114 -0.5672 2.0411 10.5599 5.1001 -7.0343 -12.8403 6.4896 2.9065 -5.3168 2.9501 2.7962 0.0000 0.0000 0.0000 -80.8811 -36.5624 53.0724 159.2262 -31.5634 -114.0689 -0.0000 0.0000 -5.8340 -2.7157 -16.7616 0.7837 -7.1250 0.0000 -0.0000 -20.0478 13.8607 15.6713 0.0000 0.0000 0.0000 86.2332 25.4756 73.4876 -150.5798 40.3912 -108.9680 0.0000 -0.0000 -3.4077 -14.7795 25.8111 -6.5530 7.1250 -0.0000 -0.0000 9.0505 -3.6888 8.5588
22.4021 15.4300 0.4275 -177.4240 -80.9759 175.8950 0.0000 0.0000 0.0000 -15.1835 -10.5572 -1.9208 1.7215 8.2601 23.5070 0.3544 16.2423 -26.1495 0.3539 -3.8222 -10.5769 0.0000 0.0000 0.0000 20.3248 15.2500 -3.7084 -1.7603 -8.3479 23.7759 -0.2128 -20.0034 -29.8147 -1.5011 7.7389 -21.9238 -1.3863 -0.2796 9.3832 -0.0733 -0.7941 7.0101 0.7554 -0.5860 2.0332 11.0651 5.0245 -6.7565 -13.6317 6.3955 2.7947 -5.6621 2.8937 2.7529 0.0000 -0.0000 0.0000 -79.4778 -34.7995 52.8399 159.3115 -31.4630 -114.1135 -0.0000 0.0000 -5.4271 -1.6882 -16.1995 0.4711 -7.1250 0.0000 -0.0000 -19.4507 14.3665 14.9179 0.0000 -0.0000 0.0000 84.1772 21.9968 70.4911 -149.6436 41.1969 -108.3564 0.0000 -0.0000 -4.5079 -13.7106 25.9802 -6.1002 7.1250 -0.0000 -0.0000 9.7067 -3.6681 9.2011
22.3970 15.4289 0.4774 -175.1410 -80.1748 173.8180 0.0000 0.0000 0.0000 -14.8851 -10.3925 -2.2457 1.7837 8.4002 23.9364 0.4043 16.3257 -26.6475 0.3102 -3.5804 -9.8991 0.0000 0.0000 0.0000 20.5175 15.1338 -4.0586 -1.7560 -8.3381 23.7458 -0.1887 -19.6685 -29.2084 -1.5742 7.9162 -22.4599 -1.2412 -0.4663 9.7781 0.1645 -1.0600 7.1760 0.9437 -0.7294 2.0002 10.8703 5.0843 -6.5278 -14.4878 6.4942 2.2719 -5.9005 2.9229 2.6027 0.0000 0.0000 0.0000 -78.1319 -32.5192 51.2110 159.1545 -31.6476 -114.0313 -0.0000 0.0000 -5.9130 -1.5765 -16.0682 0.4365 -7.1250 0.0000 -0.0000 -19.3917 14.4877 14.8131 0.0000 0.0000 0.0000 81.6539 17.3478 67.4615 -148.1575 42.4212 -107.3656 0.0000 -0.0000 -5.3331 -13.2023 26.3623 -5.9470 7.1250 -0.0000 -0.0000 10.0354 -3.3560 9.5812
22.3903 15.4201 0.5298 -176.0310 -79.7070 174.7840 0.0000 0.0000 0.0000 -15.2254 -10.4785 -2.7175 1.9066 8.6688 24.7647 0.4856 16.0842 -26.9980 0.2350 -3.1201 -8.6133 0.0000 0.0000 0.0000 19.9645 14.1694 -4.8451 -1.7995 -8.4352 24.0441 -0.1187 -19.2781 -28.1802 -1.7855 8.4042 -23.9486 -1.4364 -0.5701 10.2736 0.1794 -1.2696 7.7134 1.0860 -0.8702 2.3061 10.7888 5.2918 -7.5394 -15.5517 6.6933 1.9082 -6.1929 2.9434 2.7348 0.0000 -0.0000 0.0000 -77.1185 -29.9536 49.8757 159.0861 -31.7277 -113.9954 -0.0000 0.0000 -7.1176 -1.4096 -16.4191 0.3985 -7.1250 0.0000 -0.0000 -19.2542 14.1521 14.8414 0.0000 -0.0000 0.0000 79.1225 13.1406 62.8077 -145.5696 44.4011 -105.5866 0.0000 -0.0000 -5.2683 -12.8868 26.6017 -5.8494 7.1250 -0.0000 -0.0000 10.2385 -3.1601 9.8190
22.3896 15.4057 0.5773 -175.4080 -79.8356 174.4840 0.0000 0.0000 0.0000 -15.1592 -10.7362 -4.0132 2.1259 9.1236 26.1828 0.5514 15.4291 -26.7606 0.2021 -2.8946 -7.9853 0.0000 0.0000 0.0000 19.5430 12.7136 -6.2347 -1.8888 -8.6306 24.6464 -0.1422 -18.5988 -27.4583 -2.2164 9.3030 -26.7478 -1.5489 -0.6753 10.6732 0.4184 -1.4682 8.1554 1.4137 -1.0046 2.5721 10.2910 5.2021 -7.9386 -16.5982 6.5323 1.2755 -6.4494 2.8083 2.6264 0.0000 -0.0000 0.0000 -77.0423 -26.5753 49.5382 158.7718 -32.0938 -113.8293 -0.0000 0.0000 -7.9427 -0.4142 -14.8219 0.1060 -7.1250 0.0000 -0.0000 -18.7589 15.6366 13.7774 0.0000 -0.0000 0.0000 76.8312 8.5422 57.3621 -141.7384 47.0056 -102.8433 0.0000 -0.0000 -6.3737 -10.7732 25.6384 -4.7066 7.1250 -0.0000 -0.0000 11.4608 -4.3811 10.7738
22.3874 15.3701 0.6157 -169.9290 -80.3418 169.1350 0.0000 0.0000 0.0000 -14.2280 -10.7625 -5.4439 2.4422 9.7321 28.1135 0.6108 14.3309 -26.0185 0.3990 -4.0556 -11.2332 0.0000 0.0000 0.0000 20.0939 11.1791 -7.2830 -1.9937 -8.8529 25.3364 -0.2036 -17.9121 -27.0391 -2.4260 9.7021 -28.0172 -0.8549 -0.6588 11.2261 0.7733 -1.4215 8.3134 1.3991 -0.9708 2.4309 10.3087 5.0025 -6.9999 -17.4424 6.2404 0.4457 -6.7632 2.6965 2.2255 -0.0000 0.0000 0.0000 -77.5559 -22.1048 50.6067 158.3494 -32.5799 -113.6033 -0.0000 0.0000 -7.8649 -0.0636 -15.9840 0.0175 -7.1250 0.0000 -0.0000 -18.4322 14.5252 13.9759 -0.0000 0.0000 0.0000 75.6446 2.0549 51.1971 -136.7989 49.8561 -99.1457 0.0000 -0.0000 -7.1026 -9.0443 26.4976 -4.0622 7.1250 -0.0000 -0.0000 12.5276 -3.7361 11.9797
